<?xml version="1.0" encoding="UTF-8"?>
<svg version="1.1" viewBox="0 0 512 512" xmlns="http://www.w3.org/2000/svg" stroke="currentColor" fill="currentColor" >
 <g id="PC_protection"  >
  <path d="m431.09 46.746h-350.16a61.237 61.237 0 0 0-61.172 61.163v224.18a61.237 61.237 0 0 0 61.172 61.163h109.83v49.5h-51.75a11.25 11.25 0 1 0 0 22.5h234a11.25 11.25 0 0 0 0-22.5h-51.75v-49.5h109.84a61.235 61.235 0 0 0 61.163-61.163v-224.18a61.235 61.235 0 0 0-61.163-61.163zm-132.34 396.01h-85.5v-49.5h85.5zm132.34-72h-350.17a38.688 38.688 0 0 1-37.949-31.518h426.05a38.675 38.675 0 0 1-37.94 31.518zm38.663-54.018h-427.5v-208.83a38.71 38.71 0 0 1 38.672-38.663h350.16a38.703 38.703 0 0 1 38.663 38.663z"/>
  <path d="m340.42 123.48-81-26.118a10.974 10.974 0 0 0-6.8379 0l-81 26.118a11.349 11.349 0 0 0-7.831 10.829v61.305a95.368 95.368 0 0 0 49.043 83.586l37.811 20.903a11.139 11.139 0 0 0 10.793 0l37.819-20.903a95.387 95.387 0 0 0 49.034-83.585v-61.305a11.349 11.349 0 0 0-7.8312-10.829zm-14.669 72.134a72.607 72.607 0 0 1-37.327 63.633l-32.423 17.918-32.414-17.918a72.615 72.615 0 0 1-37.336-63.633v-52.999l69.75-22.484 69.75 22.484z"/>
  <path d="m222.07 194.87a11.162 11.162 0 0 0-15.908 0 11.454 11.454 0 0 0 0 16.079l25.444 25.718a11.162 11.162 0 0 0 15.908 0l58.324-58.951a11.454 11.454 0 0 0 0-16.079 11.162 11.162 0 0 0-15.908 0l-50.37 50.912z"/>
 </g>
</svg>
