<?xml version="1.0" encoding="utf-8"?>
<svg viewBox="0 0 24 24" xmlns="http://www.w3.org/2000/svg" stroke="currentColor">
  <rect x="0.547" y="0.553" width="22.919" height="22.985" style="fill: none;" rx="3.397" ry="3.397"/>
  <text style="white-space: pre;  font-family: Arial, sans-serif; font-size: 0.9px;" x="9.303" y="23.666" transform="matrix(0.975137, 0, 0, 1, -5.669019, 0.317468)"> </text>
  <line x1="3.396" y1="3.177" x2="14.716" y2="3.177"/>
  <line x1="3.396" y1="5.177" x2="14.716" y2="5.177"/>
  <line x1="3.396" y1="7.177" x2="14.716" y2="7.177"/>
  <line x1="3.396" y1="9.177" x2="14.716" y2="9.177"/>
  <line x1="3.396" y1="11.177" x2="14.716" y2="11.177"/>
  <line x1="3.396" y1="13.177" x2="14.716" y2="13.177"/>
  <line x1="3.396" y1="15.177" x2="14.716" y2="15.177"/>
  <line x1="3.396" y1="17.177" x2="14.716" y2="17.177"/>
  <line x1="3.396" y1="19.177" x2="14.716" y2="19.177"/>
  <line x1="3.396" y1="21.177" x2="14.716" y2="21.177"/>
  <line x1="17" y1="3.2" x2="20.8" y2="6.0"/>
  <line x1="16.294" y1="4.428" x2="21.108" y2="8.088"/>
  <line x1="16.261" y1="6.143" x2="20.053" y2="9.012"/>
  <line x1="17.365" y1="9.284" x2="21.158" y2="12.153"/>
  <line x1="16.69" y1="10.521" x2="21.504" y2="14.181"/>
  <line x1="16.657" y1="12.236" x2="20.449" y2="15.105"/>
  <line x1="16.738" y1="14.791" x2="20.531" y2="17.66"/>
  <line x1="16.063" y1="16.028" x2="20.877" y2="19.688"/>
  <line x1="16.03" y1="17.743" x2="19.822" y2="20.612"/>
</svg>